<?xml version="1.0" encoding="UTF-8"?>
<svg xmlns="http://www.w3.org/2000/svg" width="345" height="179">
   <defs>
      <style type="text/css">
    @namespace "http://www.w3.org/2000/svg";
    .line                 {fill: none; stroke: #332900; stroke-width: 1;}
    .bold-line            {stroke: #141000; shape-rendering: crispEdges; stroke-width: 2;}
    .thin-line            {stroke: #1F1800; shape-rendering: crispEdges}
    .filled               {fill: #332900; stroke: none;}
    text.terminal         {font-family: Verdana, Sans-serif;
                            font-size: 12px;
                            fill: #141000;
                            font-weight: bold;
                          }
    text.nonterminal      {font-family: Verdana, Sans-serif;
                            font-size: 12px;
                            fill: #1A1400;
                            font-weight: normal;
                          }
    text.regexp           {font-family: Verdana, Sans-serif;
                            font-size: 12px;
                            fill: #1F1800;
                            font-weight: normal;
                          }
    rect, circle, polygon {fill: #332900; stroke: #332900;}
    rect.terminal         {fill: #FFDB4D; stroke: #332900; stroke-width: 1;}
    rect.nonterminal      {fill: #FFEC9E; stroke: #332900; stroke-width: 1;}
    rect.text             {fill: none; stroke: none;}
    polygon.regexp        {fill: #FFF4C7; stroke: #332900; stroke-width: 1;}
  </style>
   </defs>
   <polygon points="9 51 1 47 1 55"/>
   <polygon points="17 51 9 47 9 55"/>
   <a xmlns:xlink="http://www.w3.org/1999/xlink"
      xlink:href="#NamedSelection"
      xlink:title="NamedSelection">
      <rect x="71" y="3" width="122" height="32"/>
      <rect x="69" y="1" width="122" height="32" class="nonterminal"/>
      <text class="nonterminal" x="79" y="21">NamedSelection</text>
   </a>
   <a xmlns:xlink="http://www.w3.org/1999/xlink"
      xlink:href="#NamedSelection"
      xlink:title="NamedSelection">
      <rect x="71" y="113" width="122" height="32"/>
      <rect x="69" y="111" width="122" height="32" class="nonterminal"/>
      <text class="nonterminal" x="79" y="131">NamedSelection</text>
   </a>
   <rect x="71" y="69" width="24" height="32" rx="10"/>
   <rect x="69"
         y="67"
         width="24"
         height="32"
         class="terminal"
         rx="10"/>
   <text class="terminal" x="79" y="87">,</text>
   <rect x="253" y="145" width="24" height="32" rx="10"/>
   <rect x="251"
         y="143"
         width="24"
         height="32"
         class="terminal"
         rx="10"/>
   <text class="terminal" x="261" y="163">,</text>
   <path class="line"
         d="m17 51 h2 m40 0 h10 m0 0 h132 m-162 0 l20 0 m-1 0 q-9 0 -9 -10 l0 -14 q0 -10 10 -10 m142 34 l20 0 m-20 0 q10 0 10 -10 l0 -14 q0 -10 -10 -10 m-142 0 h10 m122 0 h10 m20 34 h84 m-286 0 h20 m266 0 h20 m-306 0 q10 0 10 10 m286 0 q0 -10 10 -10 m-296 10 v56 m286 0 v-56 m-286 56 q0 10 10 10 m266 0 q10 0 10 -10 m-256 10 h10 m122 0 h10 m-162 0 l20 0 m-1 0 q-9 0 -9 -10 l0 -24 q0 -10 10 -10 m142 44 l20 0 m-20 0 q10 0 10 -10 l0 -24 q0 -10 -10 -10 m-142 0 h10 m24 0 h10 m0 0 h98 m40 44 h10 m0 0 h34 m-64 0 h20 m44 0 h20 m-84 0 q10 0 10 10 m64 0 q0 -10 10 -10 m-74 10 v12 m64 0 v-12 m-64 12 q0 10 10 10 m44 0 q10 0 10 -10 m-54 10 h10 m24 0 h10 m43 -108 h-3"/>
   <polygon points="335 51 343 47 343 55"/>
   <polygon points="335 51 327 47 327 55"/>
</svg>
